<svg version="1.1" viewBox="0.0 0.0 525.1233595800525 431.37795275590554" fill="none" stroke="none" stroke-linecap="square" stroke-miterlimit="10" xmlns:xlink="http://www.w3.org/1999/xlink" xmlns="http://www.w3.org/2000/svg"><clipPath id="p.0"><path d="m0 0l525.12335 0l0 431.37796l-525.12335 0l0 -431.37796z" clip-rule="nonzero"/></clipPath><g clip-path="url(#p.0)"><path fill="#000000" fill-opacity="0.0" d="m0 0l525.12335 0l0 431.37796l-525.12335 0z" fill-rule="evenodd"/><path fill="#6ec947" fill-opacity="0.7207" d="m41.6063 93.57743l0 0c0 -27.405502 22.216545 -49.62205 49.622047 -49.62205l26.225723 0l0 0l113.77165 0l215.84514 0c13.1605835 0 25.782166 5.2280235 35.088104 14.533962c9.305939 9.305939 14.533936 21.927498 14.533936 35.08809l0 124.05512l0 0l0 74.43306l0 0c0 27.405518 -22.216522 49.62204 -49.62204 49.62204l-215.84514 0l-104.71391 54.345093l-9.057739 -54.345093l-26.225723 0c-27.405502 0 -49.622047 -22.216522 -49.622047 -49.62204l0 0l0 -74.43306l0 0z" fill-rule="evenodd"/><path fill="#253b1f" d="m41.19685 91.03412l455.08664 0l0 41.07086l-455.08664 0z" fill-rule="evenodd"/><path fill="#000000" fill-opacity="0.0" d="m84.07087 120.8189l297.85828 0l0 135.33856l-297.85828 0z" fill-rule="evenodd"/><path fill="#ffffff" d="m136.62141 233.92201q-13.03125 0 -19.3125 -6.75q-6.265625 -6.75 -6.265625 -21.703125q0 -11.515625 3.890625 -24.8125q3.90625 -13.3125 12.78125 -23.09375q8.875 -9.78125 22.765625 -9.78125q8.71875 0 14.375 4.0625q5.65625 4.0625 5.65625 12.453125q0 5.28125 -2.34375 8.65625q-2.34375 3.375 -7.34375 3.375q-4.90625 0 -9.53125 -5.734375q3.734375 -1.875 4.9375 -4.1875q1.203125 -2.328125 1.203125 -4.875q0 -2.078125 -0.953125 -3.1875q-0.9375 -1.109375 -3.328125 -1.109375q-4.46875 0 -9.15625 7.09375q-4.6875 7.078125 -7.75 18.5q-3.0625 11.421875 -3.0625 22.0q0 7.453125 2.265625 10.9375q2.265625 3.484375 8.3125 3.484375q5.75 0 10.609375 -2.53125q4.875 -2.53125 9.46875 -8.65625l6.03125 2.640625q-3.671875 9.21875 -9.265625 14.015625q-5.59375 4.78125 -11.9375 7.0q-6.34375 2.203125 -12.046875 2.203125zm33.070694 -59.46875l19.890625 0l-1.5625 4.421875q-0.234375 -0.609375 3.046875 -2.515625q3.296875 -1.90625 7.296875 -1.90625q4.453125 0 7.015625 3.046875q2.5625 3.046875 2.5625 7.171875q0 3.921875 -2.625 6.96875q-2.625 3.03125 -7.265625 3.03125q-3.484375 0 -4.765625 -1.765625q-1.265625 -1.78125 -1.78125 -4.359375q-0.25 -1.09375 0.046875 -1.421875q0.3125 -0.328125 0.3125 0.515625q-1.625 0 -2.8125 0.703125q-1.1875 0.6875 -2.9375 2.28125l-8.765625 41.59375l-19.890625 0l12.234375 -57.765625zm49.899628 58.40625q-8.76561 0 -13.812485 -4.734375q-5.046875 -4.75 -5.046875 -14.4375q0 -7.71875 3.015625 -16.984375q3.03125 -9.28125 10.04686 -16.234375q7.03125 -6.96875 17.953125 -6.96875q13.953125 0 13.953125 12.453125q0 6.65625 -3.765625 12.1875q-3.75 5.515625 -9.859375 8.796875q-6.09375 3.28125 -11.03125 3.59375q-0.078125 1.1875 -0.078125 2.1875q0 4.328125 1.171875 5.546875q1.171875 1.203125 4.28125 1.203125q5.109375 0 8.8125 -2.40625q3.703125 -2.421875 9.078125 -8.375l8.53125 0q-14.5 24.171875 -33.25 24.171875zm2.921875 -31.890625q0.46875 -0.03125 3.578125 -2.25q3.109375 -2.234375 5.03125 -5.703125q1.9375 -3.484375 1.9375 -7.28125q0 -2.15625 -0.453125 -2.15625q-2.53125 0 -5.8125 5.984375q-3.28125 5.984375 -4.28125 11.40625zm35.581024 31.890625q-7.015625 0 -11.71875 -4.8125q-4.6875 -4.8125 -4.6875 -14.578125q0 -8.28125 3.296875 -17.390625q3.3125 -9.125 10.0625 -15.640625q6.75 -6.515625 16.28125 -6.515625q5.0625 0 7.953125 2.03125q2.890625 2.015625 2.890625 5.625l-2.21875 0.421875l3.390625 -26.515625l20.453125 -2.765625l-12.9375 60.734375q-0.359375 1.359375 -0.359375 2.890625q0 1.140625 0.328125 1.4375q0.328125 0.296875 1.828125 0.296875q1.96875 0 3.671875 -1.984375q1.703125 -2.0 3.3125 -7.40625l9.21875 0q-8.0 23.53125 -24.53125 23.53125q-5.203125 0 -8.546875 -2.875q-3.34375 -2.890625 -2.953125 -3.796875q-0.09375 1.109375 -4.453125 4.21875q-4.34375 3.09375 -10.28125 3.09375zm6.9375 -14.78125q1.703125 0 3.734375 -1.828125q2.046875 -1.84375 2.796875 -5.0625l0 -0.515625l5.15625 -24.140625q-0.390625 -1.5625 -2.09375 -1.5625q-3.09375 0 -6.078125 4.328125q-2.96875 4.328125 -4.796875 10.984375q-1.828125 6.65625 -1.828125 11.6875q0 4.40625 0.875 5.265625q0.890625 0.84375 2.234375 0.84375zm54.072693 -44.953125q-4.4375 0 -7.546875 -3.09375q-3.09375 -3.109375 -3.09375 -7.546875q0 -4.421875 3.09375 -7.578125q3.09375 -3.171875 7.546875 -3.171875q4.4375 0 7.59375 3.15625q3.15625 3.15625 3.15625 7.59375q0 4.453125 -3.171875 7.546875q-3.15625 3.09375 -7.578125 3.09375zm-7.25 59.734375q-6.0625 0 -9.859375 -3.859375q-3.78125 -3.859375 -3.78125 -11.15625q0 -2.890625 0.90625 -7.390625l7.625 -36.0l19.890625 0l-8.25 39.015625q-0.375 1.359375 -0.375 2.875q0 1.140625 0.328125 1.4375q0.328125 0.296875 1.828125 0.296875q2.1875 0 4.3125 -2.09375q2.140625 -2.09375 3.625 -7.296875l9.25 0q-5.1875 15.171875 -11.96875 19.671875q-6.78125 4.5 -13.53125 4.5zm27.945984 0q-6.515625 0 -9.703125 -4.03125q-3.1875 -4.03125 -3.1875 -10.234375q0 -3.03125 0.6875 -6.125l6.265625 -29.3125l-3.484375 0l1.71875 -8.703125l3.5625 0l3.140625 -14.484375l20.546875 -2.796875q-1.6875 7.125 -1.8125 7.890625q-0.75 3.03125 -2.03125 9.390625l6.40625 0l-1.75 8.703125l-6.40625 0l-6.453125 30.265625q-0.484375 2.109375 -0.484375 3.25q0 1.609375 1.515625 1.609375q1.53125 0 6.390625 -1.796875q-3.875 11.265625 -7.328125 13.828125q-3.453125 2.546875 -7.59375 2.546875z" fill-rule="nonzero"/><path fill="#000000" fill-opacity="0.0" d="m184.11023 214.17848l267.02362 0l0 110.92912l-267.02362 0z" fill-rule="evenodd"/><path fill="#ffffff" d="m242.05954 285.77472q-3.0625 0 -5.53125 -0.796875q-2.46875 -0.796875 -4.25 -2.296875q-1.8125 -1.5 -2.765625 -3.5625q-0.953125 -2.0625 -0.953125 -4.5625q0 -2.09375 0.671875 -3.953125q0.671875 -1.859375 1.890625 -3.234375q1.21875 -1.375 2.84375 -2.140625q1.625 -0.765625 3.4375 -0.765625q2.25 0 3.78125 1.125q1.53125 1.125 1.90625 3.09375q-3.34375 0 -5.3125 1.78125q-0.9375 0.84375 -1.453125 2.0625q-0.515625 1.21875 -0.515625 2.6875q0 2.8125 1.640625 4.453125q1.640625 1.640625 4.421875 1.640625q1.65625 0 3.09375 -0.609375q1.4375 -0.609375 2.5 -1.671875q1.0625 -1.0625 1.640625 -2.546875q0.578125 -1.484375 0.578125 -3.171875q0 -3.125 -2.125 -6.5q-0.84375 -1.3125 -1.859375 -2.578125q-1.015625 -1.265625 -2.828125 -3.359375q-1.625 -1.875 -2.71875 -3.25q-1.09375 -1.375 -1.96875 -2.8124847q-2.125 -3.46875 -2.125 -6.8125q0 -2.5 1.0625 -4.640625q1.0625 -2.140625 3.03125 -3.734375q1.96875 -1.59375 4.59375 -2.46875q2.625 -0.875 5.65625 -0.875q5.15625 0 8.28125 2.4375q1.5 1.1875 2.296875 2.84375q0.796875 1.65625 0.796875 3.6875q0 2.65625 -1.34375 4.34375q-0.625 0.8125 -1.546875 1.25q-0.921875 0.4375 -1.953125 0.4375q-2.40625 0 -3.90625 -2.0q1.21875 -0.875 1.921875 -2.328125q0.703125 -1.453125 0.703125 -3.109375q0 -2.0625 -1.21875 -3.265625q-1.21875 -1.203125 -3.34375 -1.203125q-1.28125 0 -2.359375 0.46875q-1.078125 0.46875 -1.828125 1.34375q-0.78125 0.875 -1.203125 2.0625q-0.421875 1.1875 -0.421875 2.59375q0 2.0 0.9375 3.84375q0.9375 1.84375 2.6875 3.84375q1.5625 1.84375 3.375 3.6562347q4.21875 4.375 5.96875 8.53125q1.03125 2.46875 1.03125 5.4375q0 3.125 -1.28125 5.796875q-1.28125 2.671875 -3.65625 4.640625q-2.375 2.0 -5.53125 3.09375q-3.15625 1.09375 -6.75 1.09375zm44.875 -0.78125q-3.96875 0 -6.015625 -1.875q-2.046875 -1.875 -2.046875 -5.40625q0 -1.53125 0.375 -3.34375l0.53125 -2.5q0.25 -0.96875 0.25 -2.34375q0 -1.5 -0.53125 -2.296875q-0.53125 -0.796875 -1.78125 -0.796875q-1.03125 0 -2.15625 0.59375q-1.125 0.59375 -2.5625 1.78125l-3.34375 15.8125l-9.21875 0l9.28125 -43.531235l9.46875 -1.28125l-4.78125 22.531235l12.34375 -9.718735l6.34375 0l-12.8125 8.906235q1.09375 -0.28125 2.125 -0.28125q1.75 0 3.078125 0.578125q1.328125 0.578125 2.234375 1.640625q0.84375 1.0 1.28125 2.359375q0.4375 1.359375 0.4375 2.921875q0 1.46875 -0.25 2.4375l-0.71875 3.1875q-0.3125 1.03125 -0.3125 2.0625q0 1.09375 0.5625 1.734375q0.5625 0.640625 1.9375 0.640625q1.90625 0 3.21875 -1.5625q1.0 -1.1875 2.15625 -4.09375l2.6875 0q-2.34375 7.09375 -6.15625 9.9375q-2.5 1.90625 -5.625 1.90625zm19.78125 -35.843735q-1.03125 0 -1.96875 -0.390625q-0.9375 -0.390625 -1.625 -1.078125q-0.6875 -0.65625 -1.078125 -1.59375q-0.390625 -0.9375 -0.390625 -1.96875q0 -1.03125 0.390625 -1.96875q0.390625 -0.9375 1.078125 -1.65625q0.6875 -0.71875 1.625 -1.109375q0.9375 -0.390625 1.96875 -0.390625q1.03125 0 1.96875 0.390625q0.9375 0.390625 1.65625 1.109375q0.71875 0.71875 1.109375 1.65625q0.390625 0.9375 0.390625 1.96875q0 1.03125 -0.390625 1.96875q-0.390625 0.9375 -1.109375 1.59375q-0.71875 0.6875 -1.65625 1.078125q-0.9375 0.390625 -1.96875 0.390625zm-4.34375 35.843735q-3.0625 0 -4.84375 -1.8125q-2.0 -2.0 -2.0 -5.84375q0 -1.8125 0.5 -4.1875l4.34375 -20.531235l9.21875 0l-4.59375 21.749985q-0.25 0.8125 -0.25 2.0625q0 1.3125 0.609375 1.84375q0.609375 0.53125 1.984375 0.53125q0.9375 0 1.828125 -0.421875q0.890625 -0.421875 1.640625 -1.171875q1.53125 -1.53125 2.3125 -4.0625l2.6875 0q-1.71875 4.84375 -4.3125 7.71875q-2.1875 2.34375 -4.9375 3.375q-2.0 0.75 -4.1875 0.75zm33.84375 0q-3.96875 0 -5.875 -2.25q-1.65625 -1.9375 -1.65625 -4.96875q0 -1.4375 0.359375 -3.34375q0.359375 -1.90625 1.078125 -4.90625q0.71875 -3.0625 1.078125 -4.890625q0.359375 -1.828125 0.359375 -3.171875q0 -3.28125 -2.3125 -3.28125q-1.625 0 -3.0 1.71875q-1.15625 1.46875 -2.0 4.1875l-4.34375 20.53125l-9.21875 0l6.78125 -31.999985l9.21875 0l-0.6875 3.3125q1.875 -2.09375 4.03125 -2.9375q1.59375 -0.625 3.4375 -0.625q3.25 0 5.125 1.6875q2.0 1.84375 2.0 5.5312347q0 2.21875 -0.8125 5.78125q-0.21875 1.03125 -0.71875 3.09375q-0.90625 3.46875 -1.3125 5.53125q-0.25 1.3125 -0.25 2.125q0 1.28125 0.578125 1.984375q0.578125 0.703125 1.984375 0.703125q1.90625 0 3.21875 -1.5625q1.0 -1.1875 2.15625 -4.09375l2.6875 0q-2.375 7.03125 -6.0 9.84375q-2.5625 2.0 -5.90625 2.0zm32.3125 0q-3.96875 0 -5.875 -2.25q-1.65625 -1.9375 -1.65625 -4.96875q0 -1.4375 0.359375 -3.34375q0.359375 -1.90625 1.078125 -4.90625q0.71875 -3.0625 1.078125 -4.890625q0.359375 -1.828125 0.359375 -3.171875q0 -3.28125 -2.3125 -3.28125q-1.625 0 -3.0 1.71875q-1.15625 1.46875 -2.0 4.1875l-4.34375 20.53125l-9.21875 0l6.78125 -31.999985l9.21875 0l-0.6875 3.3125q1.875 -2.09375 4.03125 -2.9375q1.59375 -0.625 3.4375 -0.625q3.25 0 5.125 1.6875q2.0 1.84375 2.0 5.5312347q0 2.21875 -0.8125 5.78125q-0.21875 1.03125 -0.71875 3.09375q-0.90625 3.46875 -1.3125 5.53125q-0.25 1.3125 -0.25 2.125q0 1.28125 0.578125 1.984375q0.578125 0.703125 1.984375 0.703125q1.90625 0 3.21875 -1.5625q1.0 -1.1875 2.15625 -4.09375l2.6875 0q-2.375 7.03125 -6.0 9.84375q-2.5625 2.0 -5.90625 2.0zm19.1875 15.625q-1.5 0 -2.796875 -0.390625q-1.296875 -0.390625 -2.234375 -1.171875q-1.0 -0.78125 -1.5625 -1.953125q-0.5625 -1.171875 -0.5625 -2.703125q0 -3.625 3.40625 -6.21875q2.5625 -1.90625 7.03125 -3.3125l0.78125 -3.4375q-1.875 2.0625 -4.0625 2.90625q-1.6875 0.65625 -3.625 0.65625q-3.0625 0 -4.84375 -1.8125q-2.0 -2.0 -2.0 -5.84375q0 -1.8125 0.5 -4.1875l4.34375 -20.531235l9.21875 0l-4.59375 21.749985q-0.1875 0.78125 -0.1875 1.625q0 1.21875 0.40625 1.9375q0.46875 0.875 1.5 0.875q1.6875 0 3.03125 -1.5q1.15625 -1.28125 1.96875 -3.75l4.46875 -20.937485l9.21875 0l-6.34375 29.687485q3.03125 -1.0 4.84375 -3.0q1.96875 -2.15625 3.21875 -6.15625l2.6875 0q-1.71875 5.6875 -5.125 8.78125q-2.5 2.25 -6.1875 3.1875l-0.96875 4.625q-1.21875 6.125 -4.875 8.875q-2.65625 2.0 -6.65625 2.0zm-1.46875 -5.0q0.96875 0 2.0625 -1.40625q1.0625 -1.375 1.65625 -4.28125l0.375 -1.84375q-2.90625 1.09375 -4.34375 2.21875q-1.90625 1.4375 -1.90625 3.21875q0 0.84375 0.53125 1.40625q0.59375 0.6875 1.625 0.6875z" fill-rule="nonzero"/></g></svg>